# xmcd CD database file
#
# Track frame offsets:
#	150
#	16472
#	40387
#	92087
#	110002
#	124022
#	145795
#	165787
#	183895
#	206727
#	220357
#	241435
#	254007
#	265607
#	281562
#
# Disc length: 4406 seconds
#
# Revision: 3
# Processed by: cddbd v1.5.2PL0 Copyright (c) Steve Scherf et al.
# Submitted via: CDex 1.83
#
DISCID=d911340f
DTITLE=Charlie Daniels Band - The Roots Remain  [CD1  Then)
DYEAR=1996
DGENRE=Country
TTITLE0=Then, Now And Until The End (1996 Unreleased)
TTITLE1=Uneasy Rider (1973 Uneasy Rider)
TTITLE2=No Place To Go (1974 Fire On The Mountain)
TTITLE3=The South's Gonna Do It Again (1974 Fire On The Mountain)
TTITLE4=Orange Blossom Special (1974 Fire On The Mountain)
TTITLE5=Trudy (1974 Fire On The Mountain)
TTITLE6=Caballo Diablo (1974 Fire On The Mountain)
TTITLE7=Long Haired Country Boy (1974 Fire On The Mountain)
TTITLE8=Funky Junky (1975 Nightrider)
TTITLE9=Texas (1975 Nightrider)
TTITLE10=Birmingham Blues (1975 Nightrider)
TTITLE11=Wichita Jail (1976 Saddle Tramp)
TTITLE12=Dixie On My Mind (1976 Saddle Tramp)
TTITLE13=Sweet Louisiana (1976 Saddle Tramp)
TTITLE14=Saddle Tramp (1976 Saddle Tramp)
EXTD=YEAR: 1996
EXTT0=
EXTT1=
EXTT2=
EXTT3=
EXTT4=
EXTT5=
EXTT6=
EXTT7=
EXTT8=
EXTT9=
EXTT10=
EXTT11=
EXTT12=
EXTT13=
EXTT14=
PLAYORDER=
